<?xml version="1.0" encoding="utf-8"?>
<svg viewBox="0 0 32 32" xmlns="http://www.w3.org/2000/svg">
  <defs>
    <linearGradient id="g1" x1="0%" y1="0%" x2="100%" y2="100%">
      <stop offset="0%" stop-color="#22d3ee"/>
      <stop offset="100%" stop-color="#0ea5e9"/>
    </linearGradient>
  </defs>
  <rect width="32" height="32" rx="8" fill="#0f172a"/>
  <path d="M8 10.5C8 9.67 8.67 9 9.5 9H14.5C15.33 9 16 9.67 16 10.5C16 11.33 15.33 12 14.5 12H13.24L18.5 20H22.5C23.33 20 24 20.67 24 21.5C24 22.33 23.33 23 22.5 23H17.5C16.67 23 16 22.33 16 21.5C16 20.67 16.67 20 17.5 20H18.76L13.5 12H9.5C8.67 12 8 11.33 8 10.5Z" fill="url(#g1)"/>
  <circle cx="22" cy="10.5" r="2.5" fill="url(#g1)" opacity="0.6"/>
  <circle cx="10" cy="21.5" r="2.5" fill="url(#g1)" opacity="0.6"/>
</svg>
